<svg xmlns="http://www.w3.org/2000/svg" width="800px" height="800px" version="1.1" viewBox="144 144 512 512">
 <defs>
  <clipPath id="f">
   <path d="m356 148.09h88v87.906h-88z"/>
  </clipPath>
  <clipPath id="e">
   <path d="m356 564h88v87.902h-88z"/>
  </clipPath>
  <clipPath id="d">
   <path d="m148.09 276h87.906v88h-87.906z"/>
  </clipPath>
  <clipPath id="c">
   <path d="m148.09 436h87.906v88h-87.906z"/>
  </clipPath>
  <clipPath id="b">
   <path d="m564 276h87.902v88h-87.902z"/>
  </clipPath>
  <clipPath id="a">
   <path d="m564 436h87.902v88h-87.902z"/>
  </clipPath>
 </defs>
 <path d="m400 532.38-114.64-66.18-0.003906-132.38 114.64-66.172 114.63 66.172 0.007813 132.38zm-98.387-75.562 98.387 56.797 98.391-56.805-0.007813-113.62-98.383-56.789-98.387 56.793z"/>
 <path d="m400 409.38-110.57-63.844 8.1289-14.07 102.45 59.148 102.45-59.148 8.1289 14.07z"/>
 <path d="m391.88 400h16.254v123h-16.254z"/>
 <path d="m289.42 345.54-28.867-16.664h-33.324v-16.254h37.684l32.637 18.848z"/>
 <path d="m510.57 345.54-8.125-14.07 32.633-18.848h37.684v16.254h-33.324z"/>
 <path d="m572.77 487.38h-37.684l-32.633-18.844 8.125-14.074 28.867 16.668h33.324z"/>
 <path d="m264.91 487.38h-37.684v-16.25h33.324l28.867-16.668 8.1289 14.074z"/>
 <path d="m391.88 227.23h16.254v49.793h-16.254z"/>
 <path d="m391.88 523h16.254v49.793h-16.254z"/>
 <path d="m227.23 210.07h18.055v16.254h-18.055z"/>
 <path d="m554.71 210.07h18.059v16.254h-18.059z"/>
 <path d="m227.23 573.69h18.055v16.254h-18.055z"/>
 <path d="m554.71 573.69h18.059v16.254h-18.059z"/>
 <g clip-path="url(#f)">
  <path d="m443.63 235.36h-87.262v-87.262h87.266v87.262zm-71.012-16.254h54.758v-54.754h-54.758z"/>
 </g>
 <g clip-path="url(#e)">
  <path d="m443.63 651.9h-87.262v-87.262h87.266v87.262zm-71.012-16.25h54.758v-54.758h-54.758z"/>
 </g>
 <g clip-path="url(#d)">
  <path d="m235.36 363.49h-87.262v-87.262h87.262zm-71.008-16.25h54.758v-54.762h-54.758z"/>
 </g>
 <g clip-path="url(#c)">
  <path d="m235.36 523.78h-87.262v-87.266h87.262zm-71.008-16.254h54.758v-54.758h-54.758z"/>
 </g>
 <g clip-path="url(#b)">
  <path d="m651.9 363.49h-87.262v-87.262h87.262zm-71.008-16.25h54.758v-54.762h-54.758z"/>
 </g>
 <g clip-path="url(#a)">
  <path d="m651.9 523.78h-87.262v-87.266h87.262zm-71.008-16.254h54.758v-54.758h-54.758z"/>
 </g>
</svg>